<?xml version="1.0" standalone="no"?>
<!DOCTYPE svg PUBLIC "-//W3C//DTD SVG 20010904//EN"
 "http://www.w3.org/TR/2001/REC-SVG-20010904/DTD/svg10.dtd">
<svg version="1.0" xmlns="http://www.w3.org/2000/svg"
 width="795.000000pt" height="800.000000pt" viewBox="0 0 795.000000 800.000000"
 preserveAspectRatio="xMidYMid meet">

<g transform="translate(0.000000,800.000000) scale(0.100000,-0.100000)"
fill="#000000" stroke="none">
<path d="M3755 7733 c-527 -46 -995 -176 -1440 -400 -374 -188 -661 -391 -949
-673 -634 -618 -1005 -1382 -1118 -2300 -21 -166 -17 -702 5 -870 80 -602 276
-1127 602 -1620 415 -627 1011 -1123 1693 -1410 360 -151 735 -243 1137 -280
143 -13 499 -13 645 1 733 66 1399 319 1962 746 639 483 1110 1167 1347 1953
141 466 193 1017 141 1495 -12 115 -26 135 -90 135 -60 0 -76 -28 -83 -147
-12 -192 -88 -520 -166 -714 -219 -549 -615 -1030 -1120 -1363 -133 -88 -240
-151 -245 -145 -2 2 3 42 10 89 9 61 13 229 14 600 0 502 1 516 21 545 37 55
106 199 132 275 48 145 62 233 62 405 0 172 -14 262 -61 405 -133 399 -501
749 -939 894 -440 145 -942 103 -1338 -112 -370 -200 -629 -525 -718 -899 -74
-311 -22 -652 141 -923 l49 -81 4 -567 c3 -544 4 -570 25 -650 12 -46 22 -88
22 -93 0 -17 -216 100 -353 191 -186 124 -280 202 -453 374 -222 222 -387 441
-540 715 -270 486 -413 1104 -376 1623 49 682 327 1276 834 1780 429 426 1002
731 1588 843 80 16 153 35 163 43 10 9 17 29 17 47 0 44 -27 74 -75 85 -37 9
-459 11 -550 3z m591 -2793 c142 -36 302 -131 388 -231 l36 -42 67 64 c117
112 222 172 367 209 358 91 741 -126 895 -507 54 -131 66 -204 66 -378 -1
-120 -5 -176 -18 -225 -114 -422 -437 -687 -812 -667 -194 11 -345 79 -497
225 l-66 64 -60 -60 c-263 -263 -642 -306 -943 -106 -81 54 -202 179 -252 261
-297 488 -105 1160 387 1361 137 55 303 67 442 32z m-362 -2982 c13 -18 16
-56 16 -207 0 -202 -5 -221 -60 -221 -48 0 -50 10 -50 221 0 166 2 200 16 213
22 23 60 20 78 -6z m168 5 c16 -14 18 -35 18 -205 0 -111 -4 -197 -10 -209
-13 -23 -62 -26 -84 -3 -23 23 -24 379 0 412 18 26 50 28 76 5z m169 7 c18
-10 19 -23 19 -213 0 -217 -2 -227 -50 -227 -48 0 -50 10 -50 227 0 182 2 203
18 212 22 13 39 13 63 1z m979 -19 c6 -12 10 -97 10 -207 0 -160 -2 -190 -17
-206 -20 -22 -51 -23 -75 -1 -16 14 -18 35 -18 205 0 111 4 197 10 209 7 13
21 19 45 19 24 0 38 -6 45 -19z m168 7 c9 -9 12 -70 12 -215 l0 -203 -25 -12
c-19 -8 -31 -8 -50 0 l-25 12 0 203 c0 217 2 227 50 227 14 0 31 -5 38 -12z
m176 -4 c23 -23 24 -379 0 -412 -18 -26 -50 -28 -76 -5 -16 15 -18 35 -18 213
0 139 3 199 12 208 17 17 64 15 82 -4z"/>
<path d="M4112 4314 c-87 -43 -136 -124 -135 -224 0 -80 23 -129 86 -187 138
-127 366 -53 408 132 46 207 -169 374 -359 279z"/>
<path d="M5231 4328 c-47 -13 -134 -103 -149 -154 -50 -170 66 -334 238 -334
171 0 287 162 239 334 -13 48 -82 123 -134 147 -44 20 -137 24 -194 7z"/>
<path d="M4718 3912 c-64 -68 -67 -92 -24 -200 20 -49 46 -113 59 -142 l24
-53 51 129 c68 168 68 188 1 260 -29 30 -55 54 -59 54 -4 0 -28 -22 -52 -48z"/>
</g>
</svg>
